# Made in Blockbench 4.9.3
mtllib materials.mtl

o cube
v 0.9999533826774747 1.6875 0.711624618830464
v 0.5806016306724004 1.6875 -1.1799488949644068
v 0.9999533826774747 0.0625 0.711624618830464
v 0.5806016306724004 0.0625 -1.1799488949644068
v -1.3719903835674665 1.6875 -0.7470696670882011
v -0.9526386315623921 1.6875 1.1445038467066697
v -1.3719903835674665 0.0625 -0.7470696670882011
v -0.9526386315623921 0.0625 1.1445038467066697
vt 0.25 0.7578125
vt 0.375 0.7578125
vt 0.375 0.65625
vt 0.25 0.65625
vt 0.375 1
vt 0.49609375 1
vt 0.49609375 0.8984375
vt 0.375 0.8984375
vt 0.25 0.65625
vt 0.375 0.65625
vt 0.375 0.5546875
vt 0.25 0.5546875
vt 0.375 0.8984375
vt 0.49609375 0.8984375
vt 0.49609375 0.796875
vt 0.375 0.796875
vt 0.375 0.87890625
vt 0.25 0.87890625
vt 0.25 1
vt 0.375 1
vt 0.375 0.87890625
vt 0.25 0.87890625
vt 0.25 0.7578125
vt 0.375 0.7578125
vn -0.21643961393810288 0 -0.9762960071199334
vn 0.9762960071199334 0 -0.21643961393810288
vn 0.21643961393810288 0 0.9762960071199334
vn -0.9762960071199334 0 0.21643961393810288
vn 0 1 0
vn 0 -1 0
usemtl m_5c0b7141-d5f5-46d3-efbe-4c1ff1415989
f 4/4/1 7/3/1 5/2/1 2/1/1
f 3/8/2 4/7/2 2/6/2 1/5/2
f 8/12/3 3/11/3 1/10/3 6/9/3
f 7/16/4 8/15/4 6/14/4 5/13/4
f 6/20/5 1/19/5 2/18/5 5/17/5
f 7/24/6 4/23/6 3/22/6 8/21/6
o cube
v 1.5625 1.0625 0.0625
v 1.5625 1.0625 -1.3125
v 1.5625 0.0625 0.0625
v 1.5625 0.0625 -1.3125
v 0.5 1.0625 -1.3125
v 0.5 1.0625 0.0625
v 0.5 0.0625 -1.3125
v 0.5 0.0625 0.0625
vt 0.44140625 0.796875
vt 0.5078125 0.796875
vt 0.5078125 0.734375
vt 0.44140625 0.734375
vt 0.375 0.625
vt 0.4609375 0.625
vt 0.4609375 0.5625
vt 0.375 0.5625
vt 0.44140625 0.734375
vt 0.5078125 0.734375
vt 0.5078125 0.671875
vt 0.44140625 0.671875
vt 0.375 0.5625
vt 0.4609375 0.5625
vt 0.4609375 0.5
vt 0.375 0.5
vt 0.44140625 0.7109375
vt 0.375 0.7109375
vt 0.375 0.796875
vt 0.44140625 0.796875
vt 0.44140625 0.7109375
vt 0.375 0.7109375
vt 0.375 0.625
vt 0.44140625 0.625
vn 0 0 -1
vn 1 0 0
vn 0 0 1
vn -1 0 0
vn 0 1 0
vn 0 -1 0
usemtl m_5c0b7141-d5f5-46d3-efbe-4c1ff1415989
f 12/28/7 15/27/7 13/26/7 10/25/7
f 11/32/8 12/31/8 10/30/8 9/29/8
f 16/36/9 11/35/9 9/34/9 14/33/9
f 15/40/10 16/39/10 14/38/10 13/37/10
f 14/44/11 9/43/11 10/42/11 13/41/11
f 15/48/12 12/47/12 11/46/12 16/45/12
o cube
v -1.5861978202874283 0.3125 0.5410458287664621
v -1.1174478202874283 0.3125 1.3529446448143734
v -1.5861978202874283 0.0625 0.5410458287664621
v -1.1174478202874283 0.0625 1.3529446448143734
v -0.5220553551856266 0.3125 1.0091946448143734
v -0.9908053551856265 0.3125 0.197295828766462
v -0.5220553551856266 0.0625 1.0091946448143734
v -0.9908053551856265 0.0625 0.197295828766462
vt 0.44140625 0.640625
vt 0.484375 0.640625
vt 0.484375 0.625
vt 0.44140625 0.625
vt 0.44140625 0.671875
vt 0.5 0.671875
vt 0.5 0.65625
vt 0.44140625 0.65625
vt 0.4609375 0.625
vt 0.50390625 0.625
vt 0.50390625 0.609375
vt 0.4609375 0.609375
vt 0.44140625 0.65625
vt 0.5 0.65625
vt 0.5 0.640625
vt 0.44140625 0.640625
vt 0.29296875 0.49609375
vt 0.25 0.49609375
vt 0.25 0.5546875
vt 0.29296875 0.5546875
vt 0.3359375 0.5546875
vt 0.29296875 0.5546875
vt 0.29296875 0.49609375
vt 0.3359375 0.49609375
vn 0.49999999999999994 0 0.8660254037844388
vn -0.8660254037844388 0 0.49999999999999994
vn -0.49999999999999994 0 -0.8660254037844388
vn 0.8660254037844388 0 -0.49999999999999994
vn 0 1 0
vn 0 -1 0
usemtl m_5c0b7141-d5f5-46d3-efbe-4c1ff1415989
f 20/52/13 23/51/13 21/50/13 18/49/13
f 19/56/14 20/55/14 18/54/14 17/53/14
f 24/60/15 19/59/15 17/58/15 22/57/15
f 23/64/16 24/63/16 22/62/16 21/61/16
f 22/68/17 17/67/17 18/66/17 21/65/17
f 23/72/18 20/71/18 19/70/18 24/69/18
o cube
v 1.3746363246031625 0.1875 1.294017619392434
v 1.481517619392434 0.1875 1.0003636753968375
v 1.3746363246031625 0.0625 1.294017619392434
v 1.481517619392434 0.0625 1.0003636753968375
v 1.1878636753968375 0.1875 0.893482380607566
v 1.080982380607566 0.1875 1.1871363246031625
v 1.1878636753968375 0.0625 0.893482380607566
v 1.080982380607566 0.0625 1.1871363246031625
vt 0.4609375 0.609375
vt 0.48046875 0.609375
vt 0.48046875 0.6015625
vt 0.4609375 0.6015625
vt 0.4609375 0.6015625
vt 0.48046875 0.6015625
vt 0.48046875 0.59375
vt 0.4609375 0.59375
vt 0.4609375 0.59375
vt 0.48046875 0.59375
vt 0.48046875 0.5859375
vt 0.4609375 0.5859375
vt 0.4609375 0.5859375
vt 0.48046875 0.5859375
vt 0.48046875 0.578125
vt 0.4609375 0.578125
vt 0.35546875 0.53515625
vt 0.3359375 0.53515625
vt 0.3359375 0.5546875
vt 0.35546875 0.5546875
vt 0.375 0.5546875
vt 0.35546875 0.5546875
vt 0.35546875 0.53515625
vt 0.375 0.53515625
vn 0.34202014332566866 0 -0.9396926207859084
vn 0.9396926207859084 0 0.34202014332566866
vn -0.34202014332566866 0 0.9396926207859084
vn -0.9396926207859084 0 -0.34202014332566866
vn 0 1 0
vn 0 -1 0
usemtl m_5c0b7141-d5f5-46d3-efbe-4c1ff1415989
f 28/76/19 31/75/19 29/74/19 26/73/19
f 27/80/20 28/79/20 26/78/20 25/77/20
f 32/84/21 27/83/21 25/82/21 30/81/21
f 31/88/22 32/87/22 30/86/22 29/85/22
f 30/92/23 25/91/23 26/90/23 29/89/23
f 31/96/24 28/95/24 27/94/24 32/93/24
o cube
v 2 0.0625 2
v 2 0.0625 -2
v 2 0.0625 2
v 2 0.0625 -2
v -2 0.0625 -2
v -2 0.0625 2
v -2 0.0625 -2
v -2 0.0625 2
vt 0 1
vt 0.25 1
vt 0.25 1
vt 0 1
vt 0 1
vt 0.25 1
vt 0.25 1
vt 0 1
vt 0 1
vt 0.25 1
vt 0.25 1
vt 0 1
vt 0 1
vt 0.25 1
vt 0.25 1
vt 0 1
vt 0.25 0.75
vt 0 0.75
vt 0 1
vt 0.25 1
vt 0 0.5
vt 0 0.5
vt 0 0.5
vt 0 0.5
vn 0 0 -1
vn 1 0 0
vn 0 0 1
vn -1 0 0
vn 0 1 0
vn 0 -1 0
usemtl m_5c0b7141-d5f5-46d3-efbe-4c1ff1415989
f 36/100/25 39/99/25 37/98/25 34/97/25
f 35/104/26 36/103/26 34/102/26 33/101/26
f 40/108/27 35/107/27 33/106/27 38/105/27
f 39/112/28 40/111/28 38/110/28 37/109/28
f 38/116/29 33/115/29 34/114/29 37/113/29
f 39/120/30 36/119/30 35/118/30 40/117/30