# Made in Blockbench 4.9.1
mtllib materials.mtl

o cube
v 2 0.06312499999999999 2
v 2 0.06312499999999999 -2
v 2 0.0625 2
v 2 0.0625 -2
v -2 0.06312499999999999 -2
v -2 0.06312499999999999 2
v -2 0.0625 -2
v -2 0.0625 2
vt 0 1
vt 0.5 1
vt 0.5 1
vt 0 1
vt 0 1
vt 0.5 1
vt 0.5 1
vt 0 1
vt 0 1
vt 0.5 1
vt 0.5 1
vt 0 1
vt 0 1
vt 0.5 1
vt 0.5 1
vt 0 1
vt 1 0.5
vt 0 0.5
vt 0 1
vt 1 1
vt 1 1
vt 0 1
vt 0 0.5
vt 1 0.5
vn 0 0 -1
vn 1 0 0
vn 0 0 1
vn -1 0 0
vn 0 1 0
vn 0 -1 0
usemtl m_daf730ca-8df3-f546-74a8-dd51fb145ab4
f 4/4/1 7/3/1 5/2/1 2/1/1
f 3/8/2 4/7/2 2/6/2 1/5/2
f 8/12/3 3/11/3 1/10/3 6/9/3
f 7/16/4 8/15/4 6/14/4 5/13/4
f 6/20/5 1/19/5 2/18/5 5/17/5
f 7/24/6 4/23/6 3/22/6 8/21/6
o cube
v 1.1727056644479623 0.6712276305913585 0.938853495707578
v 0.856043647347916 0.7039421711153604 0.2597696085740122
v 1.1611841959063796 0.0468224921026974 0.9141456266857202
v 0.8445221788063333 0.07953703262669931 0.2350617395521546
v 0.1763128070704285 0.7039421711153604 0.5767333048795367
v 0.4929748241704748 0.6712276305913585 1.2558171920131025
v 0.16479133852884575 0.07953703262669931 0.5520254358576793
v 0.481453355628892 0.0468224921026974 1.2311093229912449
vt 0.375 0.5
vt 0.5625 0.5
vt 0.5625 0.421875
vt 0.375 0.421875
vt 0.375 0.5
vt 0.5625 0.5
vt 0.5625 0.421875
vt 0.375 0.421875
vt 0.375 0.5
vt 0.5625 0.5
vt 0.5625 0.421875
vt 0.375 0.421875
vt 0.375 0.5
vt 0.5625 0.5
vt 0.5625 0.421875
vt 0.375 0.421875
vt 0 0.5
vt 0.1875 0.5
vt 0.1875 0.40625
vt 0 0.40625
vt 0.1875 0.5
vt 0.375 0.5
vt 0.375 0.40625
vt 0.1875 0.40625
vn -0.4222160228000618 0.04361938736533602 -0.9054451828447544
vn 0.90630778703665 0 -0.42261826174069933
vn 0.4222160228000618 -0.04361938736533602 0.9054451828447544
vn -0.90630778703665 0 0.42261826174069933
vn 0.018434349666532526 0.9990482215818577 0.03953259043497209
vn -0.018434349666532526 -0.9990482215818577 -0.03953259043497209
usemtl m_daf730ca-8df3-f546-74a8-dd51fb145ab4
f 12/28/7 15/27/7 13/26/7 10/25/7
f 11/32/8 12/31/8 10/30/8 9/29/8
f 16/36/9 11/35/9 9/34/9 14/33/9
f 15/40/10 16/39/10 14/38/10 13/37/10
f 14/44/11 9/43/11 10/42/11 13/41/11
f 15/48/12 12/47/12 11/46/12 16/45/12
o cube
v -0.4429028662379056 0.5625 -0.8790339652442999
v -0.5932557659900421 0.5625 -1.3558924406184134
v -0.4429028662379056 0.0625 -0.8790339652442999
v -0.5932557659900421 0.0625 -1.3558924406184134
v -0.9508996225206272 0.5625 -1.243127765804311
v -0.8005467227684907 0.5625 -0.7662692904301975
v -0.9508996225206272 0.0625 -1.243127765804311
v -0.8005467227684907 0.0625 -0.7662692904301975
vt 0.25 0.359375
vt 0.25 0.40625
vt 0.390625 0.40625
vt 0.390625 0.359375
vt 0.125 0.40625
vt 0.25 0.40625
vt 0.25 0.34375
vt 0.125 0.34375
vt 0.390625 0.40625
vt 0.390625 0.359375
vt 0.25 0.359375
vt 0.25 0.40625
vt 0 0.40625
vt 0.125 0.40625
vt 0.125 0.34375
vt 0 0.34375
vt 0.25 0.40625
vt 0.25 0.359375
vt 0.390625 0.359375
vt 0.390625 0.40625
vt 0.390625 0.40625
vt 0.390625 0.359375
vt 0.25 0.359375
vt 0.25 0.40625
vn -0.30070579950427306 0 -0.9537169507482269
vn 0.9537169507482269 0 -0.30070579950427306
vn 0.30070579950427306 0 0.9537169507482269
vn -0.9537169507482269 0 0.30070579950427306
vn 0 1 0
vn 0 -1 0
usemtl m_daf730ca-8df3-f546-74a8-dd51fb145ab4
f 20/52/13 23/51/13 21/50/13 18/49/13
f 19/56/14 20/55/14 18/54/14 17/53/14
f 24/60/15 19/59/15 17/58/15 22/57/15
f 23/64/16 24/63/16 22/62/16 21/61/16
f 22/68/17 17/67/17 18/66/17 21/65/17
f 23/72/18 20/71/18 19/70/18 24/69/18
o cube
v -1.0143756151771772 0.4375 0.46932950380880767
v -0.9491125190671514 0.4375 -0.026392926878097578
v -1.0143756151771772 0.0625 0.46932950380880767
v -0.9491125190671514 0.0625 -0.026392926878097578
v -1.4448349497540567 0.4375 -0.09165602298812336
v -1.5100980458640825 0.4375 0.4040664076987819
v -1.4448349497540567 0.0625 -0.09165602298812336
v -1.5100980458640825 0.0625 0.4040664076987819
vt 0.640625 0.40625
vt 0.78125 0.40625
vt 0.78125 0.359375
vt 0.640625 0.359375
vt 0.640625 0.40625
vt 0.78125 0.40625
vt 0.78125 0.359375
vt 0.640625 0.359375
vt 0.640625 0.40625
vt 0.78125 0.40625
vt 0.78125 0.359375
vt 0.640625 0.359375
vt 0.640625 0.40625
vt 0.78125 0.40625
vt 0.78125 0.359375
vt 0.640625 0.359375
vt 0.390625 0.40625
vt 0.515625 0.40625
vt 0.515625 0.34375
vt 0.390625 0.34375
vt 0.515625 0.40625
vt 0.640625 0.40625
vt 0.640625 0.34375
vt 0.515625 0.34375
vn 0.13052619222005157 0 -0.9914448613738104
vn 0.9914448613738104 0 0.13052619222005157
vn -0.13052619222005157 0 0.9914448613738104
vn -0.9914448613738104 0 -0.13052619222005157
vn 0 1 0
vn 0 -1 0
usemtl m_daf730ca-8df3-f546-74a8-dd51fb145ab4
f 28/76/19 31/75/19 29/74/19 26/73/19
f 27/80/20 28/79/20 26/78/20 25/77/20
f 32/84/21 27/83/21 25/82/21 30/81/21
f 31/88/22 32/87/22 30/86/22 29/85/22
f 30/92/23 25/91/23 26/90/23 29/89/23
f 31/96/24 28/95/24 27/94/24 32/93/24
o cube
v 0.782856034111217 0.9375 0.6943686612804589
v 0.782856034111217 0.9375 0.6943686612804589
v 0.782856034111217 0.0625 0.6943686612804589
v 0.782856034111217 0.0625 0.6943686612804589
v -0.010163279545851833 0.9375 1.0641596403035707
v -0.010163279545851833 0.9375 1.0641596403035707
v -0.010163279545851833 0.0625 1.0641596403035707
v -0.010163279545851833 0.0625 1.0641596403035707
vt 0 0.34375
vt 0.21875 0.34375
vt 0.21875 0.234375
vt 0 0.234375
vt 0 1
vt 0 1
vt 0 0.890625
vt 0 0.890625
vt 0.21875 0.34375
vt 0 0.34375
vt 0 0.234375
vt 0.21875 0.234375
vt 0 1
vt 0 1
vt 0 0.890625
vt 0 0.890625
vt 0 1
vt 0.21875 1
vt 0.21875 1
vt 0 1
vt 0 1
vt 0.21875 1
vt 0.21875 1
vt 0 1
vn -0.4226182617406992 0 -0.90630778703665
vn 0.90630778703665 0 -0.4226182617406992
vn 0.4226182617406992 0 0.90630778703665
vn -0.90630778703665 0 0.4226182617406992
vn 0 1 0
vn 0 -1 0
usemtl m_daf730ca-8df3-f546-74a8-dd51fb145ab4
f 36/100/25 39/99/25 37/98/25 34/97/25
f 35/104/26 36/103/26 34/102/26 33/101/26
f 40/108/27 35/107/27 33/106/27 38/105/27
f 39/112/28 40/111/28 38/110/28 37/109/28
f 38/116/29 33/115/29 34/114/29 37/113/29
f 39/120/30 36/119/30 35/118/30 40/117/30
o cube
v 1.2615250402985176 0.4375 -0.10485354448090439
v 1.3483491291319827 0.4375 -0.5972574209870084
v 1.2615250402985176 0.0625 -0.10485354448090439
v 1.3483491291319827 0.0625 -0.5972574209870084
v 0.8559452526258786 0.4375 -0.6840815098204736
v 0.7691211637924136 0.4375 -0.1916776333143696
v 0.8559452526258786 0.0625 -0.6840815098204736
v 0.7691211637924136 0.0625 -0.1916776333143696
vt 0.25 0.40625
vt 0.390625 0.40625
vt 0.390625 0.359375
vt 0.25 0.359375
vt 0.25 0.40625
vt 0.390625 0.40625
vt 0.390625 0.359375
vt 0.25 0.359375
vt 0.25 0.40625
vt 0.390625 0.40625
vt 0.390625 0.359375
vt 0.25 0.359375
vt 0.25 0.40625
vt 0.390625 0.40625
vt 0.390625 0.359375
vt 0.25 0.359375
vt 0 0.40625
vt 0.125 0.40625
vt 0.125 0.34375
vt 0 0.34375
vt 0.125 0.40625
vt 0.25 0.40625
vt 0.25 0.34375
vt 0.125 0.34375
vn 0.17364817766693033 0 -0.984807753012208
vn 0.984807753012208 0 0.17364817766693033
vn -0.17364817766693033 0 0.984807753012208
vn -0.984807753012208 0 -0.17364817766693033
vn 0 1 0
vn 0 -1 0
usemtl m_daf730ca-8df3-f546-74a8-dd51fb145ab4
f 44/124/31 47/123/31 45/122/31 42/121/31
f 43/128/32 44/127/32 42/126/32 41/125/32
f 48/132/33 43/131/33 41/130/33 46/129/33
f 47/136/34 48/135/34 46/134/34 45/133/34
f 46/140/35 41/139/35 42/138/35 45/137/35
f 47/144/36 44/143/36 43/142/36 48/141/36
o cube
v 0.0625 0.25 -0.0625
v 0.0625 0.25 -0.4375
v 0.0625 0.0625 -0.0625
v 0.0625 0.0625 -0.4375
v -0.3125 0.25 -0.4375
v -0.3125 0.25 -0.0625
v -0.3125 0.0625 -0.4375
v -0.3125 0.0625 -0.0625
vt 0.75 0.5
vt 0.84375 0.5
vt 0.84375 0.4765625
vt 0.75 0.4765625
vt 0.75 0.5
vt 0.84375 0.5
vt 0.84375 0.4765625
vt 0.75 0.4765625
vt 0.75 0.5
vt 0.84375 0.5
vt 0.84375 0.47508445945945943
vt 0.75 0.47508445945945943
vt 0.75 0.5
vt 0.84375 0.5
vt 0.84375 0.4765625
vt 0.75 0.4765625
vt 0.5625 0.5
vt 0.65625 0.5
vt 0.65625 0.453125
vt 0.5625 0.453125
vt 0.65625 0.5
vt 0.75 0.5
vt 0.75 0.453125
vt 0.65625 0.453125
vn 0 0 -1
vn 1 0 0
vn 0 0 1
vn -1 0 0
vn 0 1 0
vn 0 -1 0
usemtl m_daf730ca-8df3-f546-74a8-dd51fb145ab4
f 52/148/37 55/147/37 53/146/37 50/145/37
f 51/152/38 52/151/38 50/150/38 49/149/38
f 56/156/39 51/155/39 49/154/39 54/153/39
f 55/160/40 56/159/40 54/158/40 53/157/40
f 54/164/41 49/163/41 50/162/41 53/161/41
f 55/168/42 52/167/42 51/166/42 56/165/42
o cube
v 1.5 0.25 -1.0625
v 1.5 0.25 -1.4375
v 1.5 0.0625 -1.0625
v 1.5 0.0625 -1.4375
v 1.125 0.25 -1.4375
v 1.125 0.25 -1.0625
v 1.125 0.0625 -1.4375
v 1.125 0.0625 -1.0625
vt 0.75 0.453125
vt 0.84375 0.453125
vt 0.84375 0.4296875
vt 0.75 0.4296875
vt 0.75 0.453125
vt 0.84375 0.453125
vt 0.84375 0.4296875
vt 0.75 0.4296875
vt 0.75 0.453125
vt 0.84375 0.453125
vt 0.84375 0.4296875
vt 0.75 0.4296875
vt 0.75 0.453125
vt 0.84375 0.453125
vt 0.84375 0.4296875
vt 0.75 0.4296875
vt 0.5625 0.453125
vt 0.65625 0.453125
vt 0.65625 0.40625
vt 0.5625 0.40625
vt 0.65625 0.453125
vt 0.75 0.453125
vt 0.75 0.40625
vt 0.65625 0.40625
vn 0 0 -1
vn 1 0 0
vn 0 0 1
vn -1 0 0
vn 0 1 0
vn 0 -1 0
usemtl m_daf730ca-8df3-f546-74a8-dd51fb145ab4
f 60/172/43 63/171/43 61/170/43 58/169/43
f 59/176/44 60/175/44 58/174/44 57/173/44
f 64/180/45 59/179/45 57/178/45 62/177/45
f 63/184/46 64/183/46 62/182/46 61/181/46
f 62/188/47 57/187/47 58/186/47 61/185/47
f 63/192/48 60/191/48 59/190/48 64/189/48
o cube
v -0.7112694468303609 0.25 1.3536461564960731
v -0.7924343020571495 0.25 0.9875351538260984
v -0.7112694468303609 0.0625 1.3536461564960731
v -0.7924343020571495 0.0625 0.9875351538260984
v -1.1585453047271246 0.25 1.0687000090528869
v -1.0773804495003358 0.25 1.4348110117228619
v -1.1585453047271246 0.0625 1.0687000090528869
v -1.0773804495003358 0.0625 1.4348110117228619
vt 0.75 0.5
vt 0.84375 0.5
vt 0.84375 0.4765625
vt 0.75 0.4765625
vt 0.75 0.5
vt 0.84375 0.5
vt 0.84375 0.4765625
vt 0.75 0.4765625
vt 0.75 0.5
vt 0.84375 0.5
vt 0.84375 0.4765625
vt 0.75 0.4765625
vt 0.75 0.5
vt 0.84375 0.5
vt 0.84375 0.4765625
vt 0.75 0.4765625
vt 0.5625 0.5
vt 0.65625 0.5
vt 0.65625 0.453125
vt 0.5625 0.453125
vt 0.65625 0.5
vt 0.75 0.5
vt 0.75 0.453125
vt 0.65625 0.453125
vn -0.21643961393810288 0 -0.9762960071199334
vn 0.9762960071199334 0 -0.21643961393810288
vn 0.21643961393810288 0 0.9762960071199334
vn -0.9762960071199334 0 0.21643961393810288
vn 0 1 0
vn 0 -1 0
usemtl m_daf730ca-8df3-f546-74a8-dd51fb145ab4
f 68/196/49 71/195/49 69/194/49 66/193/49
f 67/200/50 68/199/50 66/198/50 65/197/50
f 72/204/51 67/203/51 65/202/51 70/201/51
f 71/208/52 72/207/52 70/206/52 69/205/52
f 70/212/53 65/211/53 66/210/53 69/209/53
f 71/216/54 68/215/54 67/214/54 72/213/54
o cube
v -0.8757231726445589 0.375 -1.0046985281172542
v -0.8757231726445589 0.375 -1.0046985281172542
v -0.8757231726445589 0.0625 -1.0046985281172542
v -0.8757231726445589 0.0625 -1.0046985281172542
v -1.2929743385969084 0.375 -0.8731397408341348
v -1.2929743385969084 0.375 -0.8731397408341348
v -1.2929743385969084 0.0625 -0.8731397408341348
v -1.2929743385969084 0.0625 -0.8731397408341348
vt 0.359375 0.2734375
vt 0.46875 0.2734375
vt 0.46875 0.234375
vt 0.359375 0.234375
vt 0 1
vt 0 1
vt 0 0.9609375
vt 0 0.9609375
vt 0.46875 0.2734375
vt 0.359375 0.2734375
vt 0.359375 0.234375
vt 0.46875 0.234375
vt 0 1
vt 0 1
vt 0 0.9609375
vt 0 0.9609375
vt 0 1
vt 0.109375 1
vt 0.109375 1
vt 0 1
vt 0 1
vt 0.109375 1
vt 0.109375 1
vt 0 1
vn -0.30070579950427306 0 -0.9537169507482269
vn 0.9537169507482269 0 -0.30070579950427306
vn 0.30070579950427306 0 0.9537169507482269
vn -0.9537169507482269 0 0.30070579950427306
vn 0 1 0
vn 0 -1 0
usemtl m_daf730ca-8df3-f546-74a8-dd51fb145ab4
f 76/220/55 79/219/55 77/218/55 74/217/55
f 75/224/56 76/223/56 74/222/56 73/221/56
f 80/228/57 75/227/57 73/226/57 78/225/57
f 79/232/58 80/231/58 78/230/58 77/229/58
f 78/236/59 73/235/59 74/234/59 77/233/59
f 79/240/60 76/239/60 75/238/60 80/237/60
o cube
v 1.5619920340724853 0.625 -0.36919392288048686
v 1.5619920340724853 0.625 -0.36919392288048686
v 1.5619920340724853 0.0625 -0.36919392288048686
v 1.5619920340724853 0.0625 -0.36919392288048686
v 1.0080376730031184 0.625 -0.46687102281813514
v 1.0080376730031184 0.625 -0.46687102281813514
v 1.0080376730031184 0.0625 -0.46687102281813514
v 1.0080376730031184 0.0625 -0.46687102281813514
vt 0.359375 0.3046875
vt 0.21875 0.3046875
vt 0.21875 0.234375
vt 0.359375 0.234375
vt 0 1
vt 0 1
vt 0 0.9296875
vt 0 0.9296875
vt 0.21875 0.3046875
vt 0.359375 0.3046875
vt 0.359375 0.234375
vt 0.21875 0.234375
vt 0 1
vt 0 1
vt 0 0.9296875
vt 0 0.9296875
vt 0 1
vt 0.140625 1
vt 0.140625 1
vt 0 1
vt 0 1
vt 0.140625 1
vt 0.140625 1
vt 0 1
vn 0.17364817766693033 0 -0.984807753012208
vn 0.984807753012208 0 0.17364817766693033
vn -0.17364817766693033 0 0.984807753012208
vn -0.984807753012208 0 -0.17364817766693033
vn 0 1 0
vn 0 -1 0
usemtl m_daf730ca-8df3-f546-74a8-dd51fb145ab4
f 84/244/61 87/243/61 85/242/61 82/241/61
f 83/248/62 84/247/62 82/246/62 81/245/62
f 88/252/63 83/251/63 81/250/63 86/249/63
f 87/256/64 88/255/64 86/254/64 85/253/64
f 86/260/65 81/259/65 82/258/65 85/257/65
f 87/264/66 84/263/66 83/262/66 88/261/66
o cube
v -1.2948683785756427 0.625 0.6845591710972474
v -1.2214473954518636 0.625 0.12687143657447897
v -1.2948683785756427 0.0625 0.6845591710972474
v -1.2214473954518636 0.0625 0.12687143657447897
v -1.2214473954518636 0.625 0.12687143657447897
v -1.2948683785756427 0.625 0.6845591710972474
v -1.2214473954518636 0.0625 0.12687143657447897
v -1.2948683785756427 0.0625 0.6845591710972474
vt 0 1
vt 0 1
vt 0 0.9296875
vt 0 0.9296875
vt 0.359375 0.3046875
vt 0.21875 0.3046875
vt 0.21875 0.234375
vt 0.359375 0.234375
vt 0 1
vt 0 1
vt 0 0.9296875
vt 0 0.9296875
vt 0.21875 0.3046875
vt 0.359375 0.3046875
vt 0.359375 0.234375
vt 0.21875 0.234375
vt 0 1
vt 0 1
vt 0 0.9296875
vt 0 0.9296875
vt 0 1
vt 0 1
vt 0 0.9296875
vt 0 0.9296875
vn 0.13052619222005157 0 -0.9914448613738104
vn 0.9914448613738104 0 0.13052619222005157
vn -0.13052619222005157 0 0.9914448613738104
vn -0.9914448613738104 0 -0.13052619222005157
vn 0 1 0
vn 0 -1 0
usemtl m_daf730ca-8df3-f546-74a8-dd51fb145ab4
f 92/268/67 95/267/67 93/266/67 90/265/67
f 91/272/68 92/271/68 90/270/68 89/269/68
f 96/276/69 91/275/69 89/274/69 94/273/69
f 95/280/70 96/279/70 94/278/70 93/277/70
f 94/284/71 89/283/71 90/282/71 93/281/71
f 95/288/72 92/287/72 91/286/72 96/285/72
o cube
v -0.125 0.375 -0.25
v -0.125 0.375 -0.6875
v -0.125 0.0625 -0.25
v -0.125 0.0625 -0.6875
v -0.125 0.375 -0.6875
v -0.125 0.375 -0.25
v -0.125 0.0625 -0.6875
v -0.125 0.0625 -0.25
vt 0 1
vt 0 1
vt 0 0.9324324324324325
vt 0 0.9324324324324325
vt 0.359375 0.2734375
vt 0.46875 0.2734375
vt 0.46875 0.234375
vt 0.359375 0.234375
vt 0 1
vt 0 1
vt 0 0.9324324324324325
vt 0 0.9324324324324325
vt 0.46875 0.2734375
vt 0.359375 0.2734375
vt 0.359375 0.234375
vt 0.46875 0.234375
vt 0 1
vt 0 1
vt 0 0.9054054054054054
vt 0 0.9054054054054054
vt 0 1
vt 0 1
vt 0 0.9054054054054054
vt 0 0.9054054054054054
vn 0 0 -1
vn 1 0 0
vn 0 0 1
vn -1 0 0
vn 0 1 0
vn 0 -1 0
usemtl m_daf730ca-8df3-f546-74a8-dd51fb145ab4
f 100/292/73 103/291/73 101/290/73 98/289/73
f 99/296/74 100/295/74 98/294/74 97/293/74
f 104/300/75 99/299/75 97/298/75 102/297/75
f 103/304/76 104/303/76 102/302/76 101/301/76
f 102/308/77 97/307/77 98/306/77 101/305/77
f 103/312/78 100/311/78 99/310/78 104/309/78
o cube
v 1.375 0.375 -1.25
v 1.375 0.375 -1.25
v 1.375 0.0625 -1.25
v 1.375 0.0625 -1.25
v 0.9375 0.375 -1.25
v 0.9375 0.375 -1.25
v 0.9375 0.0625 -1.25
v 0.9375 0.0625 -1.25
vt 0.359375 0.2734375
vt 0.46875 0.2734375
vt 0.46875 0.234375
vt 0.359375 0.234375
vt 0 1
vt 0 1
vt 0 0.9324324324324325
vt 0 0.9324324324324325
vt 0.46875 0.2734375
vt 0.359375 0.2734375
vt 0.359375 0.234375
vt 0.46875 0.234375
vt 0 1
vt 0 1
vt 0 0.9324324324324325
vt 0 0.9324324324324325
vt 0 1
vt 0.109375 1
vt 0.109375 1
vt 0 1
vt 0 1
vt 0.109375 1
vt 0.109375 1
vt 0 1
vn 0 0 -1
vn 1 0 0
vn 0 0 1
vn -1 0 0
vn 0 1 0
vn 0 -1 0
usemtl m_daf730ca-8df3-f546-74a8-dd51fb145ab4
f 108/316/79 111/315/79 109/314/79 106/313/79
f 107/320/80 108/319/80 106/318/80 105/317/80
f 112/324/81 107/323/81 105/322/81 110/321/81
f 111/328/82 112/327/82 110/326/82 109/325/82
f 110/332/83 105/331/83 106/330/83 109/329/83
f 111/336/84 108/335/84 107/334/84 112/333/84
o cube
v -0.5077778726637718 0.375 1.11648075167656
v -0.5077778726637718 0.375 1.11648075167656
v -0.5077778726637718 0.0625 1.11648075167656
v -0.5077778726637718 0.0625 1.11648075167656
v -0.9349073757787427 0.375 1.21117308277448
v -0.9349073757787427 0.375 1.21117308277448
v -0.9349073757787427 0.0625 1.21117308277448
v -0.9349073757787427 0.0625 1.21117308277448
vt 0.46875 0.2734375
vt 0.359375 0.2734375
vt 0.359375 0.234375
vt 0.46875 0.234375
vt 0 1
vt 0 1
vt 0 0.9609375
vt 0 0.9609375
vt 0.359375 0.2734375
vt 0.46875 0.2734375
vt 0.46875 0.234375
vt 0.359375 0.234375
vt 0 1
vt 0 1
vt 0 0.9609375
vt 0 0.9609375
vt 0 1
vt 0.109375 1
vt 0.109375 1
vt 0 1
vt 0 1
vt 0.109375 1
vt 0.109375 1
vt 0 1
vn -0.21643961393810288 0 -0.9762960071199334
vn 0.9762960071199334 0 -0.21643961393810288
vn 0.21643961393810288 0 0.9762960071199334
vn -0.9762960071199334 0 0.21643961393810288
vn 0 1 0
vn 0 -1 0
usemtl m_daf730ca-8df3-f546-74a8-dd51fb145ab4
f 116/340/85 119/339/85 117/338/85 114/337/85
f 115/344/86 116/343/86 114/342/86 113/341/86
f 120/348/87 115/347/87 113/346/87 118/345/87
f 119/352/88 120/351/88 118/350/88 117/349/88
f 118/356/89 113/355/89 114/354/89 117/353/89
f 119/360/90 116/359/90 115/358/90 120/357/90
o cube
v 1.9375 0.375 1.9375
v 1.9375 0.375 -1.9375
v 1.9375 0.0625 1.9375
v 1.9375 0.0625 -1.9375
v -1.9375 0.375 -1.9375
v -1.9375 0.375 1.9375
v -1.9375 0.0625 -1.9375
v -1.9375 0.0625 1.9375
vt 0 0.234375
vt 0.96875 0.234375
vt 0.96875 0.1953125
vt 0 0.1953125
vt 0 0.234375
vt 0.96875 0.234375
vt 0.96875 0.1953125
vt 0 0.1953125
vt 0 0.234375
vt 0.96875 0.234375
vt 0.96875 0.1953125
vt 0 0.1953125
vt 0 0.234375
vt 0.96875 0.234375
vt 0.96875 0.1953125
vt 0 0.1953125
vt 1 0.5
vt 0.984375 0.5
vt 0.984375 0.4921875
vt 1 0.4921875
vt 0.984375 0.5
vt 1 0.5
vt 1 0.4921875
vt 0.984375 0.4921875
vn 0 0 -1
vn 1 0 0
vn 0 0 1
vn -1 0 0
vn 0 1 0
vn 0 -1 0
usemtl m_daf730ca-8df3-f546-74a8-dd51fb145ab4
f 124/364/91 127/363/91 125/362/91 122/361/91
f 123/368/92 124/367/92 122/366/92 121/365/92
f 128/372/93 123/371/93 121/370/93 126/369/93
f 127/376/94 128/375/94 126/374/94 125/373/94
f 126/380/95 121/379/95 122/378/95 125/377/95
f 127/384/96 124/383/96 123/382/96 128/381/96