# Made in Blockbench 4.9.4
mtllib materials.mtl

o cube
v 2 0 2
v 2 0 -2
v 2 0 2
v 2 0 -2
v -2 0 -2
v -2 0 2
v -2 0 -2
v -2 0 2
vt 0 1
vt 0.25 1
vt 0.25 1
vt 0 1
vt 0 1
vt 0.25 1
vt 0.25 1
vt 0 1
vt 0 1
vt 0.25 1
vt 0.25 1
vt 0 1
vt 0 1
vt 0.25 1
vt 0.25 1
vt 0 1
vt 0.25 0.75
vt 0 0.75
vt 0 1
vt 0.25 1
vt 0.25 0.75
vt 0 0.75
vt 0 0.5
vt 0.25 0.5
vn 0 0 -1
vn 1 0 0
vn 0 0 1
vn -1 0 0
vn 0 1 0
vn 0 -1 0
usemtl m_426d82d7-dc90-5c13-03b9-64da80a23f6a
f 4/4/1 7/3/1 5/2/1 2/1/1
f 3/8/2 4/7/2 2/6/2 1/5/2
f 8/12/3 3/11/3 1/10/3 6/9/3
f 7/16/4 8/15/4 6/14/4 5/13/4
f 6/20/5 1/19/5 2/18/5 5/17/5
f 7/24/6 4/23/6 3/22/6 8/21/6
o cuboid
v 0.5 3 0.5
v 0.5 3 -0.5
v 0.625 0 0.625
v 0.625 0 -0.625
v -0.5 3 0.5
v -0.5 3 -0.5
v -0.625 0 0.625
v -0.625 0 -0.625
vt 0.3984375 0.7044315900910179
vt 0.3359239776854195 0.70703125
vt 0.3203125 0.51985611589566
vt 0.3984375 0.5166065410094324
vt 0.40625 0.8095752910094324
vt 0.40625 0.9974003400910179
vt 0.3437364776854195 1
vt 0.328125 0.81282486589566
vt 0.46484375 0.71875
vt 0.52734375 0.71875
vt 0.52734375 0.78125
vt 0.46484375 0.78125
vt 0.484375 0.921875
vt 0.484375 1
vt 0.40625 1
vt 0.40625 0.921875
vt 0.328125 0.8095752910094324
vt 0.328125 0.9974003400910179
vt 0.2656114776854195 1
vt 0.25 0.81282486589566
vt 0.328125 0.8059940900910179
vt 0.2656114776854195 0.80859375
vt 0.25 0.62141861589566
vt 0.328125 0.6181690410094324
vn 0.999133073092352 0.04163054471218133 0
vn -0.999133073092352 0.04163054471218133 0
vn 0 1 0
vn 0 -1 0
vn 0 0.04163054471218133 0.999133073092352
vn 0 0.04163054471218133 -0.999133073092352
usemtl m_426d82d7-dc90-5c13-03b9-64da80a23f6a
f 10/25/7 9/26/7 11/27/7 12/28/7
f 15/29/8 13/30/8 14/31/8 16/32/8
f 13/33/9 9/34/9 10/35/9 14/36/9
f 12/37/10 11/38/10 15/39/10 16/40/10
f 11/41/11 9/42/11 13/43/11 15/44/11
f 14/45/12 10/46/12 12/47/12 16/48/12
o pyramid
v 0 2.4 -9.26139141855186e-17
v 0.625 3.15 -0.625
v 0.625 3.15 0.625
v -0.625 3.15 -0.625
v -0.625 3.15 0.625
vt 0.4765625 0.51171875
vt 0.4765625 0.58984375
vt 0.3984375 0.58984375
vt 0.3984375 0.51171875
vt 0.4609375 0.48585742187500003
vt 0.5390625 0.48585742187500003
vt 0.5 0.546875
vt 0.3984375 0.782732421875
vt 0.4765625 0.782732421875
vt 0.4375 0.84375
vt 0.2421875 0.48195117187500003
vt 0.3203125 0.48195117187500003
vt 0.28125 0.54296875
vt 0.46484375 0.810076171875
vt 0.54296875 0.810076171875
vt 0.50390625 0.87109375
vn 0 1 1.2246467991473532e-16
vn 0.7682212795973759 -0.6401843996644799 -7.839997759131752e-17
vn 0 -0.6401843996644798 -0.768221279597376
vn 0 -0.64018439966448 0.7682212795973757
vn -0.7682212795973759 -0.6401843996644799 -7.839997759131752e-17
usemtl m_426d82d7-dc90-5c13-03b9-64da80a23f6a
f 19/49/13 18/50/13 20/51/13 21/52/13
f 18/53/14 19/54/14 17/55/14
f 20/56/15 18/57/15 17/58/15
f 19/59/16 21/60/16 17/61/16
f 21/62/17 20/63/17 17/64/17
o pyramid
v 0 4.28125 0
v 0.625 3.15625 0.625
v 0.625 3.15625 -0.625
v -0.625 3.15625 0.625
v -0.625 3.15625 -0.625
vt 0.484375 0.84375
vt 0.484375 0.921875
vt 0.40625 0.921875
vt 0.40625 0.84375
vt 0.3945494643308799 0.7142419723355082
vt 0.4648255356691201 0.6801129608897811
vt 0.4648255356691201 0.76953125
vt 0.3281432143308799 0.7533044723355082
vt 0.3984192856691201 0.7191754608897811
vt 0.3984192856691201 0.80859375
vt 0.2500182143308799 0.5618982223355082
vt 0.3202942856691201 0.5277692108897811
vt 0.3202942856691201 0.6171875
vt 0.3984557143308799 0.6243982223355082
vt 0.4687317856691201 0.5902692108897811
vt 0.4687317856691201 0.6796875
vn 0 -1 0
vn 0.8741572761215379 0.48564293117863216 0
vn 0 0.48564293117863216 0.8741572761215379
vn 0 0.48564293117863216 -0.8741572761215379
vn -0.8741572761215379 0.48564293117863216 0
usemtl m_426d82d7-dc90-5c13-03b9-64da80a23f6a
f 24/65/18 23/66/18 25/67/18 26/68/18
f 23/69/19 24/70/19 22/71/19
f 25/72/20 23/73/20 22/74/20
f 24/75/21 26/76/21 22/77/21
f 26/78/22 25/79/22 22/80/22