# Made in Blockbench 4.9.3
mtllib materials.mtl

o cube
v 2 0 2
v 2 0 -2
v 2 0 2
v 2 0 -2
v -2 0 -2
v -2 0 2
v -2 0 -2
v -2 0 2
vt 0 1
vt 4 1
vt 4 1
vt 0 1
vt 0 1
vt 4 1
vt 4 1
vt 0 1
vt 0 1
vt 4 1
vt 4 1
vt 0 1
vt 0 1
vt 4 1
vt 4 1
vt 0 1
vt 4 -3
vt 0 -3
vt 0 1
vt 4 1
vt 4 -3
vt 0 -3
vt 0 -7
vt 4 -7
vn 0 0 -1
vn 1 0 0
vn 0 0 1
vn -1 0 0
vn 0 1 0
vn 0 -1 0
usemtl none
f 4/4/1 7/3/1 5/2/1 2/1/1
f 3/8/2 4/7/2 2/6/2 1/5/2
f 8/12/3 3/11/3 1/10/3 6/9/3
f 7/16/4 8/15/4 6/14/4 5/13/4
f 6/20/5 1/19/5 2/18/5 5/17/5
f 7/24/6 4/23/6 3/22/6 8/21/6
o cube
v 1.635495627206712 1 1.0411607317023024
v 1.0855051563638556 1 -1.0114316491619677
v 1.635495627206712 0 1.0411607317023024
v 1.0855051563638556 0 -1.0114316491619677
v -0.7256057679281473 1 -0.5261459395947412
v -0.17561529708529078 1 1.5264464412695289
v -0.7256057679281473 0 -0.5261459395947412
v -0.17561529708529078 0 1.5264464412695289
vt 0 1
vt 1 1
vt 1 0
vt 0 0
vt 0 1
vt 1 1
vt 1 0
vt 0 0
vt 0 1
vt 1 1
vt 1 0
vt 0 0
vt 0 1
vt 1 1
vt 1 0
vt 0 0
vt 0 1
vt 1 1
vt 1 0
vt 0 0
vt 0 1
vt 1 1
vt 1 0
vt 0 0
vn -0.25881904510252074 0 -0.9659258262890683
vn 0.9659258262890683 0 -0.25881904510252074
vn 0.25881904510252074 0 0.9659258262890683
vn -0.9659258262890683 0 0.25881904510252074
vn 0 1 0
vn 0 -1 0
usemtl none
f 12/28/7 15/27/7 13/26/7 10/25/7
f 11/32/8 12/31/8 10/30/8 9/29/8
f 16/36/9 11/35/9 9/34/9 14/33/9
f 15/40/10 16/39/10 14/38/10 13/37/10
f 14/44/11 9/43/11 10/42/11 13/41/11
f 15/48/12 12/47/12 11/46/12 16/45/12
o cube
v -0.3859057712310888 0.8125 0.741631707409661
v -0.596196245376887 0.8125 -0.04318302645020711
v -0.3859057712310888 -1.1102230246251565e-16 0.741631707409661
v -0.596196245376887 -1.1102230246251565e-16 -0.04318302645020711
v -1.622492435809022 0.8125 0.23181220897122112
v -1.4122019616632238 0.8125 1.0166269428310892
v -1.622492435809022 -1.1102230246251565e-16 0.23181220897122112
v -1.4122019616632238 -1.1102230246251565e-16 1.0166269428310892
vt 0 1
vt 1 1
vt 1 0.1875
vt 0 0.1875
vt 0 1
vt 0.8125 1
vt 0.8125 0.1875
vt 0 0.1875
vt 0 1
vt 1 1
vt 1 0.1875
vt 0 0.1875
vt 0 1
vt 0.8125 1
vt 0.8125 0.1875
vt 0 0.1875
vt 0 1
vt 1 1
vt 1 0.1875
vt 0 0.1875
vt 0 1
vt 1 1
vt 1 0.1875
vt 0 0.1875
vn -0.25881904510252074 0 -0.9659258262890683
vn 0.9659258262890683 0 -0.25881904510252074
vn 0.25881904510252074 0 0.9659258262890683
vn -0.9659258262890683 0 0.25881904510252074
vn 0 1 0
vn 0 -1 0
usemtl none
f 20/52/13 23/51/13 21/50/13 18/49/13
f 19/56/14 20/55/14 18/54/14 17/53/14
f 24/60/15 19/59/15 17/58/15 22/57/15
f 23/64/16 24/63/16 22/62/16 21/61/16
f 22/68/17 17/67/17 18/66/17 21/65/17
f 23/72/18 20/71/18 19/70/18 24/69/18
o cuboid
v 0.8226629098415926 2 1.3883681244531416
v 0.20796767772310587 2 -0.9057057129833954
v 1.7885887361306612 1 1.1295490793506209
v 1.1738935040121743 1 -1.1645247580859162
v -0.26400364473360904 1 1.6795395501934773
v -0.8786988768520959 1 -0.6145342872430597
vt 1 1
vt 0 1
vt 0 0.5
vt 1 0.5
vt 1 0
vt 1 1
vt 0 1
vt 0 0
vt 1 0.5
vt 1 1
vt 0 0.5
vt 0 1
vt 0 0.5
vt 1 0.5
vt 2.375 -1.3485375
vt 2.375 1
vt 0 1
vt 0 -1.3485375
vn 0.6830127018922193 0.7071067811865476 -0.1830127018922193
vn 0 -1 0
vn 0.25881904510252074 0 0.9659258262890683
vn -0.25881904510252074 0 -0.9659258262890683
vn -0.6417261899783677 0.7474093186836597 0.17195001436660481
usemtl none
f 26/73/19 25/74/19 27/75/19 28/76/19
f 28/77/20 27/78/20 29/79/20 30/80/20
f 27/81/21 25/82/21 29/83/21
f 26/84/22 28/85/22 30/86/22
f 29/87/23 25/88/23 26/89/23 30/90/23
o cuboid
v 0.17473230377345894 1.4375 0.13493783967877138
v -1.6363786205185442 1.4375 0.6202235492459978
v 0.05293510607815499 0.8125 -0.3196154903396138
v -1.7581758182138483 0.8125 0.16567021922761255
v 0.31175415118067573 0.8125 0.6463103359494545
v -1.4993567731113275 0.8125 1.131596045516681
vt 1 1
vt 0 1
vt 0 0.5
vt 1 0.5
vt 1 0
vt 1 1
vt 0 1
vt 0 0
vt 1 0.5
vt 1 1
vt 0 0.5
vt 0 1
vt 0 0.5
vt 1 0.5
vt 2.375 -1.3485375
vt 2.375 1
vt 0 1
vt 0 -1.3485375
vn -0.20676296962902949 0.6015026967639399 -0.7716499077793588
vn 0 -1 0
vn 0.9659258262890683 0 -0.25881904510252074
vn -0.9659258262890683 0 0.25881904510252074
vn 0.1974907522240352 0.646344569313151 0.7370455213250957
usemtl none
f 32/91/24 31/92/24 33/93/24 34/94/24
f 34/95/25 33/96/25 35/97/25 36/98/25
f 33/99/26 31/100/26 35/101/26
f 32/102/27 34/103/27 36/104/27
f 35/105/28 31/106/28 32/107/28 36/108/28
o cube
v 2 0.8125 2
v 2 0.8125 -2
v 2 0 2
v 2 0 -2
v -2 0.8125 -2
v -2 0.8125 2
v -2 0 -2
v -2 0 2
vt 0 1
vt 1 1
vt 1 0.1875
vt 0 0.1875
vt 0 1
vt 1 1
vt 1 0.1875
vt 0 0.1875
vt 0 1
vt 1 1
vt 1 0.1875
vt 0 0.1875
vt 0 1
vt 1 1
vt 1 0.1875
vt 0 0.1875
vt 0 1
vt 1 1
vt 1 0
vt 0 0
vt 0 1
vt 1 1
vt 1 0
vt 0 0
vn 0 0 -1
vn 1 0 0
vn 0 0 1
vn -1 0 0
vn 0 1 0
vn 0 -1 0
usemtl none
f 40/112/29 43/111/29 41/110/29 38/109/29
f 39/116/30 40/115/30 38/114/30 37/113/30
f 44/120/31 39/119/31 37/118/31 42/117/31
f 43/124/32 44/123/32 42/122/32 41/121/32
f 42/128/33 37/127/33 38/126/33 41/125/33
f 43/132/34 40/131/34 39/130/34 44/129/34
o cube
v -0.9375 0.25 -0.1875
v -0.9375 0.25 -0.8125
v -0.9375 0 -0.1875
v -0.9375 0 -0.8125
v -1.5625 0.25 -0.8125
v -1.5625 0.25 -0.1875
v -1.5625 0 -0.8125
v -1.5625 0 -0.1875
vt 0 1
vt 0.625 1
vt 0.625 0.75
vt 0 0.75
vt 0 1
vt 0.625 1
vt 0.625 0.75
vt 0 0.75
vt 0 1
vt 0.625 1
vt 0.625 0.75
vt 0 0.75
vt 0 1
vt 0.625 1
vt 0.625 0.75
vt 0 0.75
vt 0 1
vt 0.625 1
vt 0.625 0.375
vt 0 0.375
vt 0 1
vt 0.625 1
vt 0.625 0.375
vt 0 0.375
vn 0 0 -1
vn 1 0 0
vn 0 0 1
vn -1 0 0
vn 0 1 0
vn 0 -1 0
usemtl none
f 48/136/35 51/135/35 49/134/35 46/133/35
f 47/140/36 48/139/36 46/138/36 45/137/36
f 52/144/37 47/143/37 45/142/37 50/141/37
f 51/148/38 52/147/38 50/146/38 49/145/38
f 50/152/39 45/151/39 46/150/39 49/149/39
f 51/156/40 48/155/40 47/154/40 52/153/40