# Made in Blockbench 4.9.4
mtllib materials.mtl

o cube
v 2 0 2
v 2 0 -2
v 2 0 2
v 2 0 -2
v -2 0 -2
v -2 0 2
v -2 0 -2
v -2 0 2
vt 0 1
vt 0.25 1
vt 0.25 1
vt 0 1
vt 0 1
vt 0.25 1
vt 0.25 1
vt 0 1
vt 0 1
vt 0.25 1
vt 0.25 1
vt 0 1
vt 0 1
vt 0.25 1
vt 0.25 1
vt 0 1
vt 0.25 0.75
vt 0 0.75
vt 0 1
vt 0.25 1
vt 0.25 0.75
vt 0 0.75
vt 0 0.5
vt 0.25 0.5
vn 0 0 -1
vn 1 0 0
vn 0 0 1
vn -1 0 0
vn 0 1 0
vn 0 -1 0
usemtl m_318c5b25-44bd-7ac9-6b85-8f0e94fb1239
f 4/4/1 7/3/1 5/2/1 2/1/1
f 3/8/2 4/7/2 2/6/2 1/5/2
f 8/12/3 3/11/3 1/10/3 6/9/3
f 7/16/4 8/15/4 6/14/4 5/13/4
f 6/20/5 1/19/5 2/18/5 5/17/5
f 7/24/6 4/23/6 3/22/6 8/21/6
o cube
v -0.9375 0.25 -0.625
v -0.9375 0.25 -1.25
v -0.9375 0 -0.625
v -0.9375 0 -1.25
v -1.5625 0.25 -1.25
v -1.5625 0.25 -0.625
v -1.5625 0 -1.25
v -1.5625 0 -0.625
vt 0.2109375 0.4609375
vt 0.25 0.4609375
vt 0.25 0.4453125
vt 0.2109375 0.4453125
vt 0.2109375 0.4453125
vt 0.25 0.4453125
vt 0.25 0.4296875
vt 0.2109375 0.4296875
vt 0.0703125 0.3828125
vt 0.109375 0.3828125
vt 0.109375 0.3671875
vt 0.0703125 0.3671875
vt 0.6171875 0.921875
vt 0.65625 0.921875
vt 0.65625 0.90625
vt 0.6171875 0.90625
vt 0.25 0.4609375
vt 0.2109375 0.4609375
vt 0.2109375 0.5
vt 0.25 0.5
vt 0.48046875 0.390625
vt 0.44140625 0.390625
vt 0.44140625 0.3515625
vt 0.48046875 0.3515625
vn 0 0 -1
vn 1 0 0
vn 0 0 1
vn -1 0 0
vn 0 1 0
vn 0 -1 0
usemtl m_318c5b25-44bd-7ac9-6b85-8f0e94fb1239
f 12/28/7 15/27/7 13/26/7 10/25/7
f 11/32/8 12/31/8 10/30/8 9/29/8
f 16/36/9 11/35/9 9/34/9 14/33/9
f 15/40/10 16/39/10 14/38/10 13/37/10
f 14/44/11 9/43/11 10/42/11 13/41/11
f 15/48/12 12/47/12 11/46/12 16/45/12
o cube
v 1.5309310892394863 0.625 0.8838834764831844
v 1.0132929990344448 0.625 -1.0479681760949522
v 1.5309310892394863 0 0.8838834764831844
v 1.0132929990344448 0 -1.0479681760949522
v -0.07337355554075703 0.625 -0.7567967503546164
v 0.4442645346642844 0.625 1.1750549022235202
v -0.07337355554075703 0 -0.7567967503546164
v 0.4442645346642844 0 1.1750549022235202
vt 0.30078125 0.390625
vt 0.37109375 0.390625
vt 0.37109375 0.3515625
vt 0.30078125 0.3515625
vt 0.2890625 0.4296875
vt 0.4140625 0.4296875
vt 0.4140625 0.390625
vt 0.2890625 0.390625
vt 0.37109375 0.390625
vt 0.44140625 0.390625
vt 0.44140625 0.3515625
vt 0.37109375 0.3515625
vt 0.5625 0.40625
vt 0.6875 0.40625
vt 0.6875 0.3671875
vt 0.5625 0.3671875
vt 0.5390625 0.6171875
vt 0.46875 0.6171875
vt 0.46875 0.7421875
vt 0.5390625 0.7421875
vt 0.0703125 0.5
vt 0 0.5
vt 0 0.375
vt 0.0703125 0.375
vn -0.25881904510252074 0 -0.9659258262890683
vn 0.9659258262890683 0 -0.25881904510252074
vn 0.25881904510252074 0 0.9659258262890683
vn -0.9659258262890683 0 0.25881904510252074
vn 0 1 0
vn 0 -1 0
usemtl m_318c5b25-44bd-7ac9-6b85-8f0e94fb1239
f 20/52/13 23/51/13 21/50/13 18/49/13
f 19/56/14 20/55/14 18/54/14 17/53/14
f 24/60/15 19/59/15 17/58/15 22/57/15
f 23/64/16 24/63/16 22/62/16 21/61/16
f 22/68/17 17/67/17 18/66/17 21/65/17
f 23/72/18 20/71/18 19/70/18 24/69/18
o cube
v 1.6074776437014604 0.12437500000000001 0.9280776503073438
v 1.0574871728586042 0.12437500000000001 -1.1245147305569265
v 1.6074776437014604 -0.0006249999999999867 0.9280776503073438
v 1.0574871728586042 -0.0006249999999999867 -1.1245147305569265
v -0.1499201100027313 0.12437500000000001 -0.8009909241787756
v 0.40007036084012526 0.12437500000000001 1.2516014566854947
v -0.1499201100027313 -0.0006249999999999867 -0.8009909241787756
v 0.40007036084012526 -0.0006249999999999867 1.2516014566854947
vt 0.6015625 0.75
vt 0.6796875 0.75
vt 0.6796875 0.7421875
vt 0.6015625 0.7421875
vt 0.5390625 0.625
vt 0.671875 0.625
vt 0.671875 0.6171875
vt 0.5390625 0.6171875
vt 0.6171875 0.90625
vt 0.6953125 0.90625
vt 0.6953125 0.8984375
vt 0.6171875 0.8984375
vt 0.6015625 0.7734375
vt 0.734375 0.7734375
vt 0.734375 0.765625
vt 0.6015625 0.765625
vt 0.421875 0.4296875
vt 0.34375 0.4296875
vt 0.34375 0.5625
vt 0.421875 0.5625
vt 0.5 0.5625
vt 0.421875 0.5625
vt 0.421875 0.4296875
vt 0.5 0.4296875
vn -0.25881904510252074 0 -0.9659258262890683
vn 0.9659258262890683 0 -0.25881904510252074
vn 0.25881904510252074 0 0.9659258262890683
vn -0.9659258262890683 0 0.25881904510252074
vn 0 1 0
vn 0 -1 0
usemtl m_318c5b25-44bd-7ac9-6b85-8f0e94fb1239
f 28/76/19 31/75/19 29/74/19 26/73/19
f 27/80/20 28/79/20 26/78/20 25/77/20
f 32/84/21 27/83/21 25/82/21 30/81/21
f 31/88/22 32/87/22 30/86/22 29/85/22
f 30/92/23 25/91/23 26/90/23 29/89/23
f 31/96/24 28/95/24 27/94/24 32/93/24
o cube
v 1.0037740022707928 1.5 1.0898395534964191
v 0.4537835314279363 1.5 -0.962752827367851
v 1.728218371987594 0.625 0.8957252696695286
v 1.1782279011447376 0.625 -1.1568671111947415
v 0.2793296325539917 0.625 1.2839538373233097
v -0.2706608382888649 0.625 -0.7686385435409604
vt 0.6015625 0.8125
vt 0.6015625 0.8828125
vt 0.46875 0.8828125
vt 0.46875 0.8125
vt 0.34375 0.4296875
vt 0.34375 0.5625
vt 0.25 0.5625
vt 0.25 0.4296875
vt 0.65625 0.40625
vt 0.609375 0.4609375
vt 0.5625 0.40625
vt 0.30078125 0.375
vt 0.25390625 0.4296875
vt 0.20703125 0.375
vt 0.46875 0.8125
vt 0.46875 0.7421875
vt 0.6015625 0.7421875
vt 0.6015625 0.8125
vn 0.7333855610051296 0.6507913734559685 -0.19651006881197036
vn 0 -1 0
vn 0.25881904510252074 0 0.9659258262890683
vn -0.25881904510252074 0 -0.9659258262890683
vn -0.7333855610051296 0.6507913734559685 0.19651006881197036
usemtl m_318c5b25-44bd-7ac9-6b85-8f0e94fb1239
f 36/97/25 34/98/25 33/99/25 35/100/25
f 36/101/26 35/102/26 37/103/26 38/104/26
f 35/105/27 33/106/27 37/107/27
f 38/108/28 34/109/28 36/110/28
f 34/111/29 38/112/29 37/113/29 33/114/29
o cube
v 0.6198798317495753 0.12437500000000001 -0.10139153904600873
v -1.1912310925424279 0.12437500000000001 0.38389417052121777
v 0.6198798317495753 -0.0006249999999999867 -0.10139153904600873
v -1.1912310925424279 -0.0006249999999999867 0.38389417052121777
v -0.9000596668020919 0.12437500000000001 1.4705607250964194
v 0.911051257489911 0.12437500000000001 0.9852750155291932
v -0.9000596668020919 -0.0006249999999999867 1.4705607250964194
v 0.911051257489911 -0.0006249999999999867 0.9852750155291932
vt 0.6171875 0.8984375
vt 0.6875 0.8984375
vt 0.6875 0.890625
vt 0.6171875 0.890625
vt 0.6015625 0.765625
vt 0.71875 0.765625
vt 0.71875 0.7578125
vt 0.6015625 0.7578125
vt 0.109375 0.3828125
vt 0.1796875 0.3828125
vt 0.1796875 0.375
vt 0.109375 0.375
vt 0.6015625 0.7578125
vt 0.71875 0.7578125
vt 0.71875 0.75
vt 0.6015625 0.75
vt 0.140625 0.3828125
vt 0.0703125 0.3828125
vt 0.0703125 0.5
vt 0.140625 0.5
vt 0.2109375 0.5
vt 0.140625 0.5
vt 0.140625 0.3828125
vt 0.2109375 0.3828125
vn -0.9659258262890683 0 0.25881904510252074
vn -0.25881904510252074 0 -0.9659258262890683
vn 0.9659258262890683 0 -0.25881904510252074
vn 0.25881904510252074 0 0.9659258262890683
vn 0 1 0
vn 0 -1 0
usemtl m_318c5b25-44bd-7ac9-6b85-8f0e94fb1239
f 42/118/30 45/117/30 43/116/30 40/115/30
f 41/122/31 42/121/31 40/120/31 39/119/31
f 46/126/32 41/125/32 39/124/32 44/123/32
f 45/130/33 46/129/33 44/128/33 43/127/33
f 44/134/34 39/133/34 40/132/34 43/131/34
f 45/138/35 42/137/35 41/136/35 46/135/35
o cube
v 0.5756856579254159 0.625 -0.02484498458403439
v -1.1146845380804535 0.625 0.4280883443453769
v 0.5756856579254159 0 -0.02484498458403439
v -1.1146845380804535 0 0.4280883443453769
v -0.8558654929779327 0.625 1.3940141706344453
v 0.8345047030279367 0.625 0.941080841705034
v -0.8558654929779327 0 1.3940141706344453
v 0.8345047030279367 0 0.941080841705034
vt 0.6171875 1
vt 0.6796875 1
vt 0.6796875 0.9609375
vt 0.6171875 0.9609375
vt 0.6015625 0.890625
vt 0.7109375 0.890625
vt 0.7109375 0.8515625
vt 0.6015625 0.8515625
vt 0.6171875 0.9609375
vt 0.6796875 0.9609375
vt 0.6796875 0.921875
vt 0.6171875 0.921875
vt 0.6015625 0.8515625
vt 0.7109375 0.8515625
vt 0.7109375 0.8125
vt 0.6015625 0.8125
vt 0.5625 0.3515625
vt 0.5 0.3515625
vt 0.5 0.4609375
vt 0.5625 0.4609375
vt 0.6171875 1
vt 0.5546875 1
vt 0.5546875 0.890625
vt 0.6171875 0.890625
vn -0.9659258262890683 0 0.25881904510252074
vn -0.25881904510252074 0 -0.9659258262890683
vn 0.9659258262890683 0 -0.25881904510252074
vn 0.25881904510252074 0 0.9659258262890683
vn 0 1 0
vn 0 -1 0
usemtl m_318c5b25-44bd-7ac9-6b85-8f0e94fb1239
f 50/142/36 53/141/36 51/140/36 48/139/36
f 49/146/37 50/145/37 48/144/37 47/143/37
f 54/150/38 49/149/38 47/148/38 52/147/38
f 53/154/39 54/153/39 52/152/39 51/151/39
f 52/158/40 47/157/40 48/156/40 51/155/40
f 53/162/41 50/161/41 49/160/41 54/159/41
o cube
v 0.7654655446197431 1.25 0.4419417382415922
v -1.0456453796722598 1.25 0.9272274478088186
v 0.5875274511117601 0.625 -0.22213226733214222
v -1.2235834731802429 0.625 0.26315344223508413
v 0.9434036381277262 0.625 1.1060157438153269
v -0.867707286164277 0.625 1.5913014533825531
vt 0.65625 0.68359375
vt 0.65625 0.7421875
vt 0.5390625 0.7421875
vt 0.5390625 0.68359375
vt 0.5546875 0.8828125
vt 0.5546875 1
vt 0.46875 1
vt 0.46875 0.8828125
vt 0.5 0.390625
vt 0.45703125 0.4296875
vt 0.4140625 0.390625
vt 0.6875 0.7734375
vt 0.64453125 0.8125
vt 0.6015625 0.7734375
vt 0.5390625 0.68359375
vt 0.5390625 0.625
vt 0.65625 0.625
vt 0.65625 0.68359375
vn -0.17410053020857022 0.7399400733959437 -0.6497520243630643
vn 0 -1 0
vn 0.9659258262890683 0 -0.25881904510252074
vn -0.9659258262890683 0 0.25881904510252074
vn 0.17410053020857022 0.7399400733959437 0.6497520243630643
usemtl m_318c5b25-44bd-7ac9-6b85-8f0e94fb1239
f 58/163/42 56/164/42 55/165/42 57/166/42
f 58/167/43 57/168/43 59/169/43 60/170/43
f 57/171/44 55/172/44 59/173/44
f 60/174/45 56/175/45 58/176/45
f 56/177/46 60/178/46 59/179/46 55/180/46
o fence
v 1.8958632714689565 0.625 1.590818171852153
v 1.590818171852153 0.625 -1.8958632714689565
v 1.8958632714689565 0 1.590818171852153
v 1.590818171852153 0 -1.8958632714689565
v -1.8958632714689565 0.625 -1.590818171852153
v -1.590818171852153 0.625 1.8958632714689565
v -1.8958632714689565 0 -1.590818171852153
v -1.590818171852153 0 1.8958632714689565
vt 0.46875 0.6171875
vt 0.6875 0.6171875
vt 0.6875 0.578125
vt 0.46875 0.578125
vt 0.5 0.578125
vt 0.71875 0.578125
vt 0.71875 0.5390625
vt 0.5 0.5390625
vt 0.5 0.5390625
vt 0.71875 0.5390625
vt 0.71875 0.5
vt 0.5 0.5
vt 0.5 0.5
vt 0.71875 0.5
vt 0.71875 0.4609375
vt 0.5 0.4609375
vt 0.21875 0.09765625
vt 0 0.09765625
vt 0 0.31640625
vt 0.21875 0.31640625
vt 0.21875 0.3203125
vt 0 0.3203125
vt 0 0.1015625
vt 0.21875 0.1015625
vn -0.08715574274765818 0 -0.9961946980917455
vn 0.9961946980917455 0 -0.08715574274765818
vn 0.08715574274765818 0 0.9961946980917455
vn -0.9961946980917455 0 0.08715574274765818
vn 0 1 0
vn 0 -1 0
usemtl m_318c5b25-44bd-7ac9-6b85-8f0e94fb1239
f 64/184/47 67/183/47 65/182/47 62/181/47
f 63/188/48 64/187/48 62/186/48 61/185/48
f 68/192/49 63/191/49 61/190/49 66/189/49
f 67/196/50 68/195/50 66/194/50 65/193/50
f 66/200/51 61/199/51 62/198/51 65/197/51
f 67/204/52 64/203/52 63/202/52 68/201/52